<?xml version="1.0" encoding="UTF-8" standalone="no"?>
<svg
   xmlns:dc="http://purl.org/dc/elements/1.1/"
   xmlns:cc="http://creativecommons.org/ns#"
   xmlns:rdf="http://www.w3.org/1999/02/22-rdf-syntax-ns#"
   xmlns:svg="http://www.w3.org/2000/svg"
   xmlns="http://www.w3.org/2000/svg"
   xmlns:sodipodi="http://sodipodi.sourceforge.net/DTD/sodipodi-0.dtd"
   xmlns:inkscape="http://www.inkscape.org/namespaces/inkscape"
   inkscape:version="1.0 (4035a4fb49, 2020-05-01)"
   sodipodi:docname="coding.svg"
   xml:space="preserve"
   style="enable-background:new 0 0 508.1 508.1;"
   viewBox="0 0 508.1 508.1"
   y="0px"
   x="0px"
   id="Capa_1"
   version="1.1"><metadata
   id="metadata115"><rdf:RDF><cc:Work
       rdf:about=""><dc:format>image/svg+xml</dc:format><dc:type
         rdf:resource="http://purl.org/dc/dcmitype/StillImage" /></cc:Work></rdf:RDF></metadata><defs
   id="defs113" /><sodipodi:namedview
   inkscape:current-layer="Capa_1"
   inkscape:window-maximized="1"
   inkscape:window-y="-9"
   inkscape:window-x="-9"
   inkscape:cy="254.05"
   inkscape:cx="254.05"
   inkscape:zoom="1.6335367"
   showgrid="false"
   id="namedview111"
   inkscape:window-height="1001"
   inkscape:window-width="1920"
   inkscape:pageshadow="2"
   inkscape:pageopacity="0"
   guidetolerance="10"
   gridtolerance="10"
   objecttolerance="10"
   borderopacity="1"
   bordercolor="#666666"
   pagecolor="#ffffff" />
<g
   style="fill:#803300"
   id="g6">
	<g
   style="fill:#803300"
   id="g4">
		
	</g>
</g>











<g
   style="fill:#0a93e7;fill-opacity:1"
   id="g978"><path
     d="M475.2,360.55V90.15c0-13.6-11-24.6-24.6-24.6H57.4c-13.6,0-24.6,11-24.6,24.6v270.4H0v31.8c0,13.4,5.2,26,14.7,35.5    s22.1,14.7,35.5,14.7h407.7c13.4,0,26-5.2,35.5-14.7s14.7-22.1,14.7-35.5v-31.8H475.2z M49.2,90.15c0-4.5,3.7-8.2,8.2-8.2h393.3    c4.5,0,8.2,3.7,8.2,8.2v270.4H303.2v16.4h-98.3v-16.4H49.2V90.15z M491.7,392.35h-0.1c0,9-3.5,17.5-9.9,23.9    c-6.4,6.4-14.9,9.9-23.9,9.9H50.2c-9,0-17.5-3.5-23.9-9.9c-6.4-6.4-9.9-14.9-9.9-23.9v-15.4h172.1v16.4h131.1v-16.4h172.1V392.35z    "
     id="path2"
     style="enable-background:new 0 0 508.10000000000002274 508.10000000000002274;fill:#0a93e7;fill-opacity:1" /><g
     id="g12"
     style="fill:#0a93e7;fill-opacity:1">
	<g
   id="g10"
   style="fill:#0a93e7;fill-opacity:1">
		<path
   d="M65.5,98.35v81.6v164.2h376.9v-164.2h0.1v-81.6H65.5z M81.9,114.85H426v48.8H81.9V114.85z M81.9,327.75v-147.8H426v147.8    H81.9z"
   id="path8"
   style="fill:#0a93e7;fill-opacity:1" />
	</g>
</g><g
     id="g18"
     style="fill:#0a93e7;fill-opacity:1">
	<g
   id="g16"
   style="fill:#0a93e7;fill-opacity:1">
		<rect
   x="442.5"
   y="393.35"
   width="16.4"
   height="16.4"
   id="rect14"
   style="fill:#0a93e7;fill-opacity:1" />
	</g>
</g><g
     id="g24"
     style="fill:#0a93e7;fill-opacity:1">
	<g
   id="g22"
   style="fill:#0a93e7;fill-opacity:1">
		<rect
   x="409.7"
   y="393.35"
   width="16.4"
   height="16.4"
   id="rect20"
   style="fill:#0a93e7;fill-opacity:1" />
	</g>
</g><g
     id="g30"
     style="fill:#0a93e7;fill-opacity:1">
	<g
   id="g28"
   style="fill:#0a93e7;fill-opacity:1">
		<rect
   x="376.9"
   y="393.35"
   width="16.4"
   height="16.4"
   id="rect26"
   style="fill:#0a93e7;fill-opacity:1" />
	</g>
</g><g
     id="g36"
     style="fill:#0a93e7;fill-opacity:1">
	<g
   id="g34"
   style="fill:#0a93e7;fill-opacity:1">
		<rect
   x="49.2"
   y="393.35"
   width="114.7"
   height="16.4"
   id="rect32"
   style="fill:#0a93e7;fill-opacity:1" />
	</g>
</g><g
     id="g42"
     style="fill:#0a93e7;fill-opacity:1">
	<g
   id="g40"
   style="fill:#0a93e7;fill-opacity:1">
		<rect
   x="106.5"
   y="131.15"
   width="16.4"
   height="16.4"
   id="rect38"
   style="fill:#0a93e7;fill-opacity:1" />
	</g>
</g><g
     style="fill:#0a93e7;fill-opacity:1"
     id="g48">
	<g
   style="fill:#0a93e7;fill-opacity:1"
   id="g46">
		<rect
   style="fill:#0a93e7;fill-opacity:1"
   x="139.3"
   y="131.15"
   width="16.4"
   height="16.4"
   id="rect44" />
	</g>
</g><g
     id="g54"
     style="fill:#0a93e7;fill-opacity:1">
	<g
   id="g52"
   style="fill:#0a93e7;fill-opacity:1">
		<rect
   x="172.1"
   y="131.15"
   width="16.4"
   height="16.4"
   id="rect50"
   style="fill:#0a93e7;fill-opacity:1" />
	</g>
</g><g
     id="g60"
     style="fill:#0a93e7;fill-opacity:1">
	<g
   id="g58"
   style="fill:#0a93e7;fill-opacity:1">
		<rect
   x="254"
   y="131.15"
   width="147.5"
   height="16.4"
   id="rect56"
   style="fill:#0a93e7;fill-opacity:1" />
	</g>
</g><g
     id="g66"
     style="fill:#0a93e7;fill-opacity:1">
	<g
   id="g64"
   style="fill:#0a93e7;fill-opacity:1">
		<polygon
   points="167.3,254.05 201.7,219.65 190.1,208.05 144.1,254.05 190.5,300.45 202.1,288.85   "
   id="polygon62"
   style="fill:#0a93e7;fill-opacity:1" />
	</g>
</g><g
     id="g72"
     style="fill:#0a93e7;fill-opacity:1">
	<g
   id="g70"
   style="fill:#0a93e7;fill-opacity:1">
		<polygon
   points="325.3,208.05 313.8,219.65 348.6,254.45 314.1,288.85 325.7,300.45 371.7,254.45   "
   id="polygon68"
   style="fill:#0a93e7;fill-opacity:1" />
	</g>
</g><g
     id="g78"
     style="fill:#0a93e7;fill-opacity:1">
	<g
   id="g76"
   style="fill:#0a93e7;fill-opacity:1">
		
			<rect
   x="193.296"
   y="249.969"
   transform="matrix(0.5693 -0.8222 0.8222 0.5693 -101.0826 323.3991)"
   width="129.608"
   height="16.401"
   id="rect74"
   style="fill:#0a93e7;fill-opacity:1" />
	</g>
</g></g>
<g
   id="g80">
</g>
<g
   id="g82">
</g>
<g
   id="g84">
</g>
<g
   id="g86">
</g>
<g
   id="g88">
</g>
<g
   id="g90">
</g>
<g
   id="g92">
</g>
<g
   id="g94">
</g>
<g
   id="g96">
</g>
<g
   id="g98">
</g>
<g
   id="g100">
</g>
<g
   id="g102">
</g>
<g
   id="g104">
</g>
<g
   id="g106">
</g>
<g
   id="g108">
</g>
</svg>
