<?xml version="1.0" encoding="UTF-8" standalone="no"?>
<svg
   xmlns:dc="http://purl.org/dc/elements/1.1/"
   xmlns:cc="http://creativecommons.org/ns#"
   xmlns:rdf="http://www.w3.org/1999/02/22-rdf-syntax-ns#"
   xmlns:svg="http://www.w3.org/2000/svg"
   xmlns="http://www.w3.org/2000/svg"
   xmlns:sodipodi="http://sodipodi.sourceforge.net/DTD/sodipodi-0.dtd"
   xmlns:inkscape="http://www.inkscape.org/namespaces/inkscape"
   inkscape:version="1.0 (4035a4fb49, 2020-05-01)"
   sodipodi:docname="code.svg"
   xml:space="preserve"
   viewBox="0 0 508.09999 154.99999"
   height="155"
   width="508.10001"
   y="0px"
   x="0px"
   id="Capa_1"
   version="1.1"><metadata
   id="metadata1003"><rdf:RDF><cc:Work
       rdf:about=""><dc:format>image/svg+xml</dc:format><dc:type
         rdf:resource="http://purl.org/dc/dcmitype/StillImage" /><dc:title></dc:title></cc:Work></rdf:RDF></metadata><defs
   id="defs1001"><rect
     id="rect848"
     height="152.01311"
     width="226.62074"
     y="40.101616"
     x="195.84509" /></defs><sodipodi:namedview
   inkscape:current-layer="g966"
   inkscape:window-maximized="1"
   inkscape:window-y="-9"
   inkscape:window-x="-9"
   inkscape:cy="233.50532"
   inkscape:cx="166.56362"
   inkscape:zoom="1.072276"
   showgrid="false"
   id="namedview999"
   inkscape:window-height="1001"
   inkscape:window-width="1920"
   inkscape:pageshadow="2"
   inkscape:pageopacity="0"
   guidetolerance="10"
   gridtolerance="10"
   objecttolerance="10"
   borderopacity="1"
   bordercolor="#666666"
   pagecolor="#ffffff"
   inkscape:document-rotation="0" />
<g
   id="g966">
	
<g
   style="fill:#ffffff"
   transform="matrix(1.4555763,0,0,1.4555763,-1.2746054,-2.4606224)"
   id="g855"><path
     d="M 45.747049,30.011727 20.354221,55.408192 45.747049,80.793748 c 2.836375,2.840012 2.836375,7.447303 0,10.283678 -1.42546,1.425461 -3.276376,2.130918 -5.141838,2.130918 -1.865462,0 -3.716378,-0.705457 -5.141839,-2.130918 L 4.9287046,60.546395 C 3.5650628,59.186389 2.797787,57.335473 2.797787,55.408192 c 0,-1.923643 0.7672758,-3.778196 2.1309176,-5.141837 L 35.463372,19.72805 c 2.840012,-2.836375 7.443666,-2.836375 10.283677,0 2.836375,2.840012 2.836375,7.436393 0,10.283677 z M 128.06011,50.262717 97.529075,19.724414 c -2.840012,-2.836375 -7.443667,-2.836375 -10.283677,0 -2.840011,2.84001 -2.840011,7.443666 0,10.283677 L 112.63459,55.404556 87.245398,80.793748 c -2.840011,2.840012 -2.840011,7.447303 0,10.283678 1.42546,1.425461 3.280013,2.130918 5.141838,2.130918 1.861826,0 3.720015,-0.705457 5.141839,-2.130918 L 128.06011,60.546395 c 1.36364,-1.363642 2.13091,-3.214558 2.13091,-5.141839 0,-1.920007 -0.76727,-3.778197 -2.13091,-5.141839 z M 79.205366,5.6334484 C 75.292623,4.6261717 71.347153,6.9898175 70.350785,10.873469 L 48.532516,96.321083 c -0.989096,3.890927 1.356369,7.854577 5.243656,8.850947 0.607276,0.15636 1.214551,0.22909 1.80728,0.22909 3.250923,0 6.203662,-2.19274 7.043665,-5.47275 L 84.445386,14.480756 c 0.996369,-3.894561 -1.352733,-7.8545763 -5.24002,-8.8473076 z"
     id="path964"
     style="fill:#ffffff;fill-opacity:1;stroke-width:3.63638" /><text
     xml:space="preserve"
     id="text846"
     style="font-style:normal;font-variant:normal;font-weight:normal;font-stretch:normal;font-size:40px;line-height:1.25;font-family:'Trebuchet MS';-inkscape-font-specification:'Trebuchet MS, Normal';font-variant-ligatures:normal;font-variant-caps:normal;font-variant-numeric:normal;font-variant-east-asian:normal;letter-spacing:0px;word-spacing:0px;white-space:pre;shape-inside:url(#rect848);fill:#ffffff;fill-opacity:1;stroke:none;"
     transform="matrix(3.2384567,0,0,3.2384567,-492.26493,-144.88486)"><tspan
       x="195.8457"
       y="76.396899"><tspan
         style="font-style:normal;font-variant:normal;font-weight:normal;font-stretch:normal;font-size:40px;font-family:'Trebuchet MS';-inkscape-font-specification:'Trebuchet MS, Normal';font-variant-ligatures:normal;font-variant-caps:normal;font-variant-numeric:normal;font-variant-east-asian:normal;fill:#ffffff">lmc</tspan></tspan></text></g></g>
<g
   id="g968">
</g>
<g
   id="g970">
</g>
<g
   id="g972">
</g>
<g
   id="g974">
</g>
<g
   id="g976">
</g>
<g
   id="g978">
</g>
<g
   id="g980">
</g>
<g
   id="g982">
</g>
<g
   id="g984">
</g>
<g
   id="g986">
</g>
<g
   id="g988">
</g>
<g
   id="g990">
</g>
<g
   id="g992">
</g>
<g
   id="g994">
</g>
<g
   id="g996">
</g>
</svg>
