<?xml version="1.0" encoding="UTF-8" standalone="no"?>
<svg
   xmlns:dc="http://purl.org/dc/elements/1.1/"
   xmlns:cc="http://creativecommons.org/ns#"
   xmlns:rdf="http://www.w3.org/1999/02/22-rdf-syntax-ns#"
   xmlns:svg="http://www.w3.org/2000/svg"
   xmlns="http://www.w3.org/2000/svg"
   xmlns:sodipodi="http://sodipodi.sourceforge.net/DTD/sodipodi-0.dtd"
   xmlns:inkscape="http://www.inkscape.org/namespaces/inkscape"
   version="1.1"
   id="Capa_1"
   x="0px"
   y="0px"
   width="35.033px"
   height="35.033px"
   viewBox="0 0 35.033 35.033"
   style="enable-background:new 0 0 35.033 35.033;"
   xml:space="preserve"
   sodipodi:docname="code.svg"
   inkscape:version="1.0 (4035a4fb49, 2020-05-01)"><metadata
   id="metadata1003"><rdf:RDF><cc:Work
       rdf:about=""><dc:format>image/svg+xml</dc:format><dc:type
         rdf:resource="http://purl.org/dc/dcmitype/StillImage" /></cc:Work></rdf:RDF></metadata><defs
   id="defs1001" /><sodipodi:namedview
   inkscape:document-rotation="0"
   pagecolor="#ffffff"
   bordercolor="#666666"
   borderopacity="1"
   objecttolerance="10"
   gridtolerance="10"
   guidetolerance="10"
   inkscape:pageopacity="0"
   inkscape:pageshadow="2"
   inkscape:window-width="1920"
   inkscape:window-height="1018"
   id="namedview999"
   showgrid="false"
   inkscape:zoom="24.262837"
   inkscape:cx="17.5165"
   inkscape:cy="17.5165"
   inkscape:window-x="-8"
   inkscape:window-y="-8"
   inkscape:window-maximized="1"
   inkscape:current-layer="g966" />
<g
   id="g966">
	<path
   d="M11.811,10.535l-6.983,6.984l6.983,6.981c0.78,0.781,0.78,2.048,0,2.828c-0.392,0.392-0.901,0.586-1.414,0.586   c-0.513,0-1.022-0.194-1.414-0.586l-8.397-8.396C0.211,18.558,0,18.049,0,17.519c0-0.529,0.211-1.039,0.586-1.414l8.397-8.398   c0.781-0.78,2.047-0.78,2.828,0C12.591,8.488,12.591,9.752,11.811,10.535z M34.447,16.104l-8.396-8.398   c-0.781-0.78-2.047-0.78-2.828,0c-0.781,0.781-0.781,2.047,0,2.828l6.982,6.984L23.223,24.5c-0.781,0.781-0.781,2.048,0,2.828   c0.392,0.392,0.902,0.586,1.414,0.586s1.023-0.194,1.414-0.586l8.396-8.396c0.375-0.375,0.586-0.884,0.586-1.414   C35.033,16.99,34.822,16.479,34.447,16.104z M21.012,3.831c-1.076-0.277-2.161,0.373-2.435,1.441l-6,23.498   c-0.272,1.07,0.373,2.16,1.442,2.434c0.167,0.043,0.334,0.063,0.497,0.063c0.894,0,1.706-0.603,1.937-1.505l6-23.498   C22.727,5.193,22.081,4.104,21.012,3.831z"
   id="path964"
   style="fill:#ffffff;fill-opacity:1" />
</g>
<g
   id="g968">
</g>
<g
   id="g970">
</g>
<g
   id="g972">
</g>
<g
   id="g974">
</g>
<g
   id="g976">
</g>
<g
   id="g978">
</g>
<g
   id="g980">
</g>
<g
   id="g982">
</g>
<g
   id="g984">
</g>
<g
   id="g986">
</g>
<g
   id="g988">
</g>
<g
   id="g990">
</g>
<g
   id="g992">
</g>
<g
   id="g994">
</g>
<g
   id="g996">
</g>
</svg>
