<?xml version="1.0" encoding="UTF-8" standalone="no"?>
<svg
   xmlns:dc="http://purl.org/dc/elements/1.1/"
   xmlns:cc="http://creativecommons.org/ns#"
   xmlns:rdf="http://www.w3.org/1999/02/22-rdf-syntax-ns#"
   xmlns:svg="http://www.w3.org/2000/svg"
   xmlns="http://www.w3.org/2000/svg"
   xmlns:sodipodi="http://sodipodi.sourceforge.net/DTD/sodipodi-0.dtd"
   xmlns:inkscape="http://www.inkscape.org/namespaces/inkscape"
   inkscape:version="1.0 (4035a4fb49, 2020-05-01)"
   sodipodi:docname="tag.svg"
   xml:space="preserve"
   style="enable-background:new 0 0 94.504 94.504;"
   viewBox="0 0 94.504 94.504"
   height="94.504px"
   width="94.504px"
   y="0px"
   x="0px"
   id="Capa_1"
   version="1.1"><metadata
   id="metadata47"><rdf:RDF><cc:Work
       rdf:about=""><dc:format>image/svg+xml</dc:format><dc:type
         rdf:resource="http://purl.org/dc/dcmitype/StillImage" /></cc:Work></rdf:RDF></metadata><defs
   id="defs45" /><sodipodi:namedview
   inkscape:current-layer="Capa_1"
   inkscape:window-maximized="1"
   inkscape:window-y="-8"
   inkscape:window-x="-8"
   inkscape:cy="37.516627"
   inkscape:cx="-19.160479"
   inkscape:zoom="4.4971642"
   showgrid="false"
   id="namedview43"
   inkscape:window-height="1018"
   inkscape:window-width="1920"
   inkscape:pageshadow="2"
   inkscape:pageopacity="0"
   guidetolerance="10"
   gridtolerance="10"
   objecttolerance="10"
   borderopacity="1"
   bordercolor="#666666"
   pagecolor="#ffffff" />
<g
   style="fill:#05386b;fill-opacity:1"
   id="g10">
	<g
   style="fill:#05386b;fill-opacity:1"
   id="g8">
		<path
   style="fill:#05386b;fill-opacity:1"
   id="path2"
   d="M93.918,45.833L69.799,21.714c-0.75-0.75-2.077-0.75-2.827,0l-5.229,5.229c-0.781,0.781-0.781,2.047,0,2.828    l17.477,17.475L61.744,64.724c-0.781,0.781-0.781,2.047,0,2.828l5.229,5.229c0.375,0.375,0.884,0.587,1.414,0.587    c0.529,0,1.039-0.212,1.414-0.587l24.117-24.118C94.699,47.881,94.699,46.614,93.918,45.833z" />
		<path
   style="fill:#05386b;fill-opacity:1"
   id="path4"
   d="M32.759,64.724L15.285,47.248l17.477-17.475c0.375-0.375,0.586-0.883,0.586-1.414c0-0.53-0.21-1.039-0.586-1.414    l-5.229-5.229c-0.375-0.375-0.884-0.586-1.414-0.586c-0.53,0-1.039,0.211-1.414,0.586L0.585,45.833    c-0.781,0.781-0.781,2.047,0,2.829L24.704,72.78c0.375,0.375,0.884,0.587,1.414,0.587c0.53,0,1.039-0.212,1.414-0.587l5.229-5.229    C33.542,66.771,33.542,65.505,32.759,64.724z" />
		<path
   style="fill:#05386b;fill-opacity:1"
   id="path6"
   d="M60.967,13.6c-0.254-0.466-0.682-0.812-1.19-0.962l-4.239-1.251c-1.058-0.314-2.172,0.293-2.484,1.352L33.375,79.382    c-0.15,0.509-0.092,1.056,0.161,1.521c0.253,0.467,0.682,0.812,1.19,0.963l4.239,1.251c0.189,0.056,0.38,0.083,0.567,0.083    c0.863,0,1.66-0.564,1.917-1.435l19.679-66.644C61.278,14.612,61.221,14.065,60.967,13.6z" />
	</g>
</g>
<g
   id="g12">
</g>
<g
   id="g14">
</g>
<g
   id="g16">
</g>
<g
   id="g18">
</g>
<g
   id="g20">
</g>
<g
   id="g22">
</g>
<g
   id="g24">
</g>
<g
   id="g26">
</g>
<g
   id="g28">
</g>
<g
   id="g30">
</g>
<g
   id="g32">
</g>
<g
   id="g34">
</g>
<g
   id="g36">
</g>
<g
   id="g38">
</g>
<g
   id="g40">
</g>
</svg>
